# xmcd
#
# Track frame offsets: 
#        150
#        25073
#        39296
#        57430
#        73399
#        86922
#        108407
#        124292
#        142143
#        157681
#        170486
#        186874
#        214118
#        226276
#        251542
#        265094
#
# Disc length: 3885 seconds
#
# Revision: 1
# Processed by: cddbd v1.5.2PL0 Copyright (c) Steve Scherf et al.
# Submitted via: ExactAudioCopy v0.95b4
#
DISCID=e50f2b10
DTITLE=鸸  - ѱ ϴ þ θ Ʈ 鸸
DTITLE=
DYEAR=2002
DGENRE=World
TTITLE0=鸸  - ˶ Ѱݹ (ɼ 鸸  )
TTITLE1=˷ -  and ߳ ϳ κ (ȭ ũٴ 
TTITLE1=  ʴ' )
TTITLE2=ӳ  -  극׹ (޸ ȩŲ 'Those Were The Days'
TTITLE2=)
TTITLE3=ũٿ, ȳ! -   and ߳ ι (1980
TTITLE3= ũ ø ȸİ)
TTITLE4=ȸ, θ,   - Ʈ Ʈ
TTITLE5= - ̿  ( '𷡽ð')
TTITLE6=θ ƿ - ȳ Ը
TTITLE7= - ѱ׶ ܼƮ ɽƮ
TTITLE8=ǳ - Ʈ ޸
TTITLE9=󸮻 θ - ߷Ƽ 
TTITLE10=ũ  - ̸ ߷ν
TTITLE11=  - ̰ 
TTITLE12= -  
TTITLE13=߻ - ̸ ̽Ű 
TTITLE14=⵵ -  ηι
TTITLE15= ɸ    ̿ - ϲö 
EXTD=
EXTT0=
EXTT1=
EXTT2=
EXTT3=
EXTT4=
EXTT5=
EXTT6=
EXTT7=
EXTT8=
EXTT9=
EXTT10=
EXTT11=
EXTT12=
EXTT13=
EXTT14=
EXTT15=
PLAYORDER=
